<?xml version="1.0" standalone="no"?>
<!DOCTYPE svg PUBLIC "-//W3C//DTD SVG 20010904//EN"
 "http://www.w3.org/TR/2001/REC-SVG-20010904/DTD/svg10.dtd">
<svg version="1.0" xmlns="http://www.w3.org/2000/svg"
 width="512.000000pt" height="512.000000pt" viewBox="0 0 512.000000 512.000000"
 preserveAspectRatio="xMidYMid meet">
<metadata>
Created by potrace 1.14, written by Peter Selinger 2001-2017
</metadata>
<g transform="translate(0.000000,512.000000) scale(0.100000,-0.100000)"
fill="#000000" stroke="none">
<path d="M2380 4550 c-484 -42 -811 -176 -1054 -430 -181 -190 -295 -441 -313
-692 l-6 -88 464 0 465 0 11 65 c35 205 182 345 431 413 90 24 112 26 317 26
201 1 227 -1 300 -22 109 -32 187 -76 244 -138 74 -81 107 -168 118 -320 l6
-80 -157 -48 c-244 -74 -514 -138 -841 -201 -565 -107 -752 -169 -1005 -332
-104 -67 -257 -220 -324 -323 -136 -206 -196 -439 -183 -704 14 -284 128 -536
337 -746 267 -266 612 -384 1070 -367 295 11 509 66 771 198 120 59 171 93
251 161 31 26 59 48 62 48 3 0 6 -70 6 -155 l0 -155 455 0 455 0 0 1453 c0
997 -4 1480 -11 1542 -26 211 -92 356 -224 490 -206 211 -505 337 -925 390
-149 19 -570 28 -720 15z m961 -2661 c-27 -108 -62 -175 -125 -245 -57 -64
-165 -143 -254 -188 -273 -138 -698 -154 -932 -36 -159 80 -253 256 -221 412
28 134 123 257 243 316 107 52 288 107 668 201 201 50 426 110 500 134 l135
43 3 -280 c2 -250 0 -289 -17 -357z"/>
</g>
</svg>
