<svg xmlns="http://www.w3.org/2000/svg" viewBox="0 0 1190.83465 795.96807" width="1190" height="795"><defs><style>.cls-1{stroke:#595959;stroke-linecap:round;stroke-linejoin:round}.cls-1,.cls-2,.cls-3,.cls-4,.cls-5,.cls-6{stroke-width:.28346px}.cls-1,.cls-2,.cls-6{fill:none}.cls-7{fill:#e3e4e4}.cls-8{fill:#e4e1cd}.cls-9{fill:#99a640}.cls-10{fill:#b9c54a}.cls-11{fill:#b2ad7f}.cls-12{fill:#d0cebc}.cls-13{fill:#dad8c5}.cls-14{fill:#d9dadb}.cls-15{fill:#88bce2}.cls-16,.cls-5{fill:#7b7c7e}.cls-17{fill:#798434}.cls-2{stroke:#707173}.cls-2,.cls-3,.cls-4,.cls-5,.cls-6{stroke-miterlimit:10}.cls-2,.cls-6{stroke-dasharray:0 0 2.83465 2.83465}.cls-3{fill:#eceded;stroke:#eceded}.cls-4{fill:#b1b3b4;stroke:#b1b3b4}.cls-5{stroke:#7b7c7e}.cls-6{stroke:#9c9e9f}.cls-18{fill:#566025;opacity:.6}</style></defs><g id="Flächen"><g id="Nachbarhäuser"><path class="cls-3" d="M913.339 64.151l2.065 53.685v1.154l3.218-.121 9.839-.425L955 117.41l2.186-.121 32.187-1.154v.79l5.83-.304 1.275 21.134 6.316 108.039.122 1.822H882.67l-.546-21.803-.183-5.162v-.79l-.789-29.15-2.186.122-26.6 1.093-9.778.425.122 3.401-3.826.182-45.305 1.64-.182-4.312-14.271.486-25.446.911-53.139 1.943 2.125 54.354-61.033 2.55-3.097.122-58.908 1.336-2.308.06-.668-17.915-2.065-52.713 60.973-4.252.729 17.977.121 2.064 61.034-3.4.953-.057-61.987 3.457-.182-4.008-.668-16.033-.365-10.567-46.64 2.915-14.15 1.276-30.79 2.854-39.718 3.644-52.41 4.858-32.065 2.915-222.15 20.527-2.49-27.875-7.106-79.496-.547-6.437 7.956-.729 98.686-8.866 34.556-3.158L549.99 61.965l32.005-2.854 50.345-2.915 128.201-7.713 12.146-.729 18.401-1.093 4.555-.243 62.916-3.28.972-.06 52.957-1.7.85 22.773zM546.53 747.485l-51.439-.06-.364 48.401H557.097l.121-48.34H546.53zM698.355 748.093l.121-2.308.122-5.162h-2.673l-11.66-.122-5.708-.06h-1.822l-.06 1.76-.062 5.694-.016.015-5.692-.06-1.822-.061-23.806-.304-.425 23.685v1.822l-.122 5.708-.182 11.54-.06 2.671-.062 2.915H706.796l.729-47.673-9.17-.06zM867.306 698.962l-97.411.304-.183 93.888v2.672h97.776l-.182-51.377-.06-7.52.075-.073 5.875-.12h2.126v-2.065l.06-5.587.122-28.847v-1.336l-4.069.061h-4.13zM926.153 795.826h83.686l.546-3.036.061-56.175.06-36.864-71.418-.121-10.688 79.374-2.247 16.822zM119.658 137.938l-106.034-.546-13.482-.061V560.68l14.757.182.304 3.704 102.634.667v.184l.364-.365.182-40.507-.182-.182.182-.182.121-40.568-.14-.167.04-9.389.1-.1.183-40.507-.136-.135.257-66.06.85-229.317z"/><path class="cls-3" d="M887.771 325.472h-33.158v74.395h38.032l3.386 51.68H1015l-12.085-203.93H882.67l5.101 77.855z"/></g><g id="Fusswegnetz_01"><path class="cls-7" d="M262.738 457.439h-38.32v20.466h14.575v2.49h3.887l23.745-22.956h-3.887z"/><path class="cls-7" d="M286.787 441.71V427.377h-5.708V441.71H266.747l-.061 9.474v4.433l-.06 1.822 16.275-15.73-40.021 38.686h4.675v-2.462l.03-.028h4.708l37.53-36.195h-3.036zM285.39 478.937V446.021l-33.097 31.884h15.364v40.142l40.507-39.11h-22.773z"/><path class="cls-7" d="M267.657 533.837v35.102h20.527v-70.69l-20.527 19.798v15.79zM420.515 471.832h-22.713v-14.333l-39.596-.06v-2.876l.04-.04H367.62V427.257h-29.15V437.337h4.676v1.392l-.005.005h-3.214v3.098l.122 12.084v1.944h4.13v1.558l-.022.02H338.468l-.06-15.607v-.121h-17.49V427.377h-5.709V441.71H289.824l-4.433 4.311 15.364-.06h33.462V478.9l-.038.037h-26.015l-19.98 19.312h105.002v20.71l48.767-47.127h-21.438zM532.501 427.256H517.44v10.081h4.676v1.397l11.903-11.478h-1.518zM520.416 438.734h-1.518v3.158l3.218-3.158h-1.7z"/><path class="cls-7" d="M393.186 568.939h21.317v-20.587l.06-50.042-21.377 20.648v49.981zM546.833 432.114v-4.858H534.02l-15.121 14.636V455.98h3.218v1.458l24.717-23.867v-1.458z"/><path class="cls-7" d="M513.067 477.723l33.766-32.552v-11.6l-33.705 32.552-.06 11.6z"/><path class="cls-7" d="M513.067 478.937l24.292-23.442v-1.154l-24.292 23.382v1.214z"/><path class="cls-7" d="M450.333 478.937V446.048l.027-.027 18.375-.06h44.393v20.162l8.988-8.684H517.44l-.06-15.608v-.121h-17.247V427.377h-5.709V441.71h-42.632V427.377h-5.709V448.33h-17.429v5.709h17.429v17.716l-.08.078h-4.05l-27.389 26.478h15.73l62.794-.06 19.98-19.313h-62.734zM540.578 454.341h6.255v-9.17l-9.474 9.17h3.22z"/><path class="cls-7" d="M577.016 457.5H537.36v-2.005l-44.272 42.754H519.505v20.527l57.511-55.507v-5.77z"/><path class="cls-7" d="M519.505 568.939h21.316v-70.69l-21.316 20.527v50.163zM714.752 427.256h-15.183v10.081l4.616.122v1.457l12.085-11.66h-1.518zM702.849 438.795h-.243l-.182-.061v1.943l1.76-1.761-1.335-.121zM647.645 568.939h21.256l.06-12.51v-8.077l.061-50.042-21.377 20.648v49.981zM808.154 413.956h-6.619V422.397l8.806-8.441h-2.187zM805.968 467.277l-.121-43.058v-5.951l-4.312 4.13v24.96h-16.457v5.769h16.457v18.705l4.433-4.251v-.304z"/><path class="cls-7" d="M801.231 471.832h-29.818v-14.333l-51.803-.06v-2.884l.033-.031h9.866V427.256H716.27l-13.846 13.421v13.847h1.76V457.439h-4.615V441.71h-17.976V427.377h-5.708V441.71h-44.88V427.377h-5.708v20.953h-17.43v5.708h17.43v17.768l-.027.026h-48.254v-8.563l-36.195 34.98H647.645v20.71l41.418-40.022h-59.515V446.048l.027-.027h65.622V478.894l-.045.043h-6.089l-20.041 19.373h104.82v.243l27.693-26.721h-.304z"/><path class="cls-7" d="M920.566 501.104V487.62H896.03V451.244l-2.915-48.159v-.121l-.182-3.097h-11.235v5.89l.06 4.92v3.252l-.028.027h-16.794v-14.09h-5.708v14.09h-27.693V399.624h-5.77V413.956h-15.425l-4.494 4.312H877.448V478.93l-.008.007H815.2l-19.98 19.312h79.373v70.69h21.438v-54.953l.008-.008h26.166v-12.874h-1.64z"/><path class="cls-7" d="M805.968 478.937v-11.356l-32.126 30.972v20.284l41.357-39.9h-9.23zM773.964 568.939H795.219v-70.69l-21.377 20.588.122 50.102z"/></g><path class="cls-9" d="M854.613 325.472H654.447v-10.688H182.878v76.884h-9.838v177.508h-2.125V389.421h9.899V312.72h475.698v10.689h198.04l.061 2.064z" id="Kies"/><g id="Grünflächen_01"><path class="cls-10" d="M785.032 457.5h-13.62V471.831h30.123v-18.705h-16.458v4.329l-.045.043zM432.236 454.038h-3.583v3.453l-.009.008h-30.843v14.333H446.083v-17.794h-13.846zM281.079 427.377h-14.332v14.333h14.332v-14.333zM668.293 427.377h-37.288v14.333H675.885v-14.333h-7.592zM611.39 454.038h-3.523v3.406l-.057.055H577.016v14.333h48.281v-17.794h-13.908zM625.297 427.377h-17.43v20.953h17.43v-20.953zM839.795 413.956h19.434v-14.09h-4.616v-.242H831.536v14.332h8.259zM466.67 427.377h-14.88v14.333h42.634v-14.333H466.67zM446.082 427.377h-17.43v20.952h17.43V427.377zM502.561 441.71h14.818v-14.333h-17.248v14.333h2.43zM684.69 441.71h14.88v-14.333h-17.977v14.333h3.097zM784.956 409.583l.06 20.345v9.049l.061 8.38h16.458v-33.372l.03-.029h24.201v-14.332h-40.689l-.121 9.96zM335.797 427.377h-14.88v14.333h17.491v-14.333h-2.611zM301.666 427.377h-14.879v14.333H315.21v-14.333h-13.544zM867.245 413.956h14.575v-14.09h-16.883v14.09h2.308z"/></g><g id="Grünflächen_02"><path class="cls-8" d="M196.786 280.35l-37.592-.121h-9.839l-.06 9.595H705.946v10.628l113.444.06h34.494v-18.644h-7.955l-7.227-.06-113.201-.243h-11.053l-51.438-.122H654.386l-14.697-.06-46.154-.122-42.936-.06-32.37-.122-103.605-.243-34.616-.06h-8.32l-132.027-.365-42.875-.061zM481.123 273.123l11.053-10.688h-11.053v10.688z"/><path class="cls-8" d="M470.07 273.062l-82.653-.182-46.216-.121-32.004-.061h-7.41v7.166l32.005.06 46.216.122 82.653.183 11.053.06 7.41-7.166-11.053-.06z"/><path class="cls-8" d="M518.23 280.35l16.032.06 11.175.061 85.811.183h7.41v-7.106l-85.812-.243v-10.87h-60.67l-18.462 17.854 44.515.061zM814.592 478.937h62.856v-60.67h-71.601v60.67h8.745zM687.545 446.021h-57.997v32.917h65.648V446.02h-7.651zM319.46 446.021h-34.07v32.916h48.706v-32.916H319.46zM484.464 446.021h-34.13v32.916h62.734v-32.916h-28.604z"/></g><g id="Grünflächen_03"><path class="cls-17" d="M514.343 503.23h3.704v-3.584H415.9v3.583h98.444zM642.483 503.23h3.705v-3.584h-103.97v3.583h100.265zM768.801 503.23h3.705v-3.584H670.358v3.583h98.443zM869.431 503.23h3.705v-3.584H796.677v3.583h72.754zM289.58 503.23H391.73v-3.584H289.58v3.583z"/></g><g id="Grünflächen_04"><path class="cls-10" d="M180.814 312.72h52.349l23.745-22.896h-76.094v22.895z"/><path class="cls-10" d="M245.795 312.72v-12.147l-12.632 12.146h12.632zM287.395 300.573v12.146h14.392v-12.121l.027-.025H341.2v12.146h85.326v-12.121l.026-.025h40.177v12.146h1.762l23.806-22.895H256.908l-11.113 10.75h41.6zM481.123 312.72v-12.147l-12.631 12.146h12.631z"/><path class="cls-10" d="M520.537 300.573v12.146h72.694l23.806-22.895H492.298l-11.175 10.75h39.414zM605.863 312.72v-12.147L593.23 312.72h12.632z"/><path class="cls-10" d="M618.495 300.573h27.207v12.146H656.512v10.689h7.105v-12.139l.008-.007h42.321v12.146h82.047l23.745-22.896h-94.679l-11.113-.06v-10.628H617.038l-11.175 10.75h12.632z"/><path class="cls-10" d="M800.624 323.408v-12.146l-12.632 12.146h12.632zM842.224 311.262v12.146h12.328l.061-11.964v-10.932h-42.875l-11.114 10.75h41.6zM862.812 434.3l-.486-.303-.425-.243-.486-.182-.486-.122-.547-.06-.486-.061h-.971l-.547.182-.486.122-.485.242-.426.183-.546.364-.304.182-.668.79-.243.303-.303.547-.183.425-.182.547-.121.425-.06.546v1.033l.06.486.121.546.182.425.183.486.303.425.243.425.365.365.364.364.425.304.425.303.486.243.425.182.547.122.486.121h.546l.486.061.486-.121.486-.061.546-.182.425-.182.547-.304.364-.182.729-.668.243-.304.425-.547.182-.364.243-.547.122-.425.182-.546.06-.486v-1.032l-.06-.486-.182-.486-.122-.486-.243-.486-.243-.425-.303-.425-.365-.364-.364-.365-.365-.303zM299.723 474.929l.486-.182.486-.182.485-.304.365-.182.79-.668.181-.304.426-.547.182-.364.303-.546.122-.426.121-.546.061-.486.06-.547-.06-.485-.06-.486-.122-.486-.182-.547-.243-.425-.243-.486-.304-.364-.303-.425-.365-.304-.425-.364-.425-.243-.486-.243-.486-.182-.425-.122-.546-.121-.486-.06-.547.06h-.486l-.546.121-.425.122-.547.243-.425.182-.547.425-.243.182-.728.79-.182.303-.365.547-.182.425-.182.486-.061.486-.121.546v1.033l.121.486.06.485.183.486.243.486.243.425.303.425.365.365.364.364.425.304.365.303.486.183.485.242.486.122.486.121h1.032l.547-.06.486-.061zM313.144 451.487l-.121.547v1.032l.121.486.06.486.183.486.243.486.243.425.304.425.364.364.364.364.365.304.425.304.486.182.486.243.485.121.486.122h1.033l.546-.06.486-.062.486-.182.425-.182.547-.304.364-.182.79-.668.182-.304.425-.546.182-.365.304-.546.121-.425.122-.547.06-.486.061-.546-.06-.486-.061-.486-.122-.486-.182-.546-.243-.425-.243-.486-.304-.365-.303-.425-.425-.303-.365-.365-.425-.243-.486-.243-.486-.182-.485-.121-.486-.122-.486-.06-.547.06h-.485l-.547.122-.425.121-.547.243-.425.182-.546.425-.243.183-.73.79-.181.303-.365.546-.182.425-.182.486-.06.486zM292.739 461.447l.547-.182.425-.183.485-.303.365-.182.79-.668.181-.304.426-.547.243-.364.242-.547.122-.425.182-.546v-.486l.06-.547-.06-.485-.06-.486-.122-.486-.182-.547-.182-.425-.243-.486-.365-.364-.303-.425-.365-.304-.425-.364-.425-.243-.425-.243-.486-.182-.486-.122-.546-.121-.486-.06-.547.06h-.486l-.546.121-.425.122-.547.243-.364.182-.547.425-.303.182-.73.79-.181.303-.365.547-.121.425-.243.486-.06.486-.122.546v1.033l.121.486.122.485.182.486.182.486.243.425.303.425.365.365.364.364.425.304.425.303.426.183.485.242.486.122.486.121h1.032l.547-.06.486-.061zM454.341 450.03l-.546.243-.425.182-.547.364-.243.243-.728.729-.183.364-.364.486-.121.425-.243.547-.061.486-.122.485v1.033l.122.486.06.546.244.425.182.486.243.425.303.486.365.364.364.365.425.304.365.242.485.243.486.183.486.121.486.121h.546l.486.061.547-.121.486-.061.486-.182.485-.122.486-.303.365-.243.79-.668.181-.243.425-.547.183-.425.303-.486.122-.486.121-.485.06-.486.062-.547-.061-.486-.06-.546-.122-.486-.182-.486-.243-.425-.243-.486-.304-.425-.304-.364-.364-.365-.425-.303-.425-.243-.425-.304-.547-.121-.425-.183-.547-.06-.485-.061h-.547l-.486.06-.546.122-.425.122zM460.475 464.908l-.06.486-.122.486v1.033l.121.485.122.547.182.425.182.486.304.425.243.425.364.365.365.425.425.243.425.303.486.243.425.182.546.122.425.121h.547l.486.061.547-.121.485-.061.547-.182.425-.122.547-.364.303-.182.79-.668.182-.243.425-.547.243-.425.243-.486.121-.486.182-.546v-.425l.061-.547-.06-.486-.061-.546-.122-.486-.121-.486-.243-.486-.243-.425-.304-.425-.364-.365-.364-.364-.426-.304-.425-.242-.425-.304-.486-.122-.485-.182-.547-.06-.486-.061h-.546l-.486.06-.486.122-.486.121-.546.243-.365.183-.546.364-.304.243-.668.729-.243.364-.304.486-.182.425-.243.546zM501.407 446.872l-.486.121-.485.122-.547.243-.364.182-.547.425-.304.182-.668.729-.243.364-.303.547-.182.425-.243.486-.061.486-.121.546v1.032l.121.486.121.486.183.486.182.486.303.425.243.425.365.364.364.365.425.303.425.304.486.182.425.243.547.122.425.121h1.032l.547-.06.486-.061.546-.182.425-.183.547-.303.304-.183.79-.728.181-.243.426-.547.242-.364.243-.547.122-.425.182-.546v-.486l.06-.547-.06-.486-.06-.546-.122-.425-.122-.547-.243-.425-.242-.486-.304-.364-.365-.425-.364-.304-.425-.364-.425-.243-.425-.243-.486-.182-.486-.122-.546-.121-.486-.061-.547.06h-.486zM493.634 477.054l.546-.242.426-.122.546-.304.364-.242.73-.668.242-.243.425-.547.182-.364.243-.547.122-.425.182-.547.06-.485v-1.033l-.06-.546-.182-.486-.122-.486-.243-.425-.242-.486-.304-.364-.304-.426-.425-.303-.364-.365-.486-.243-.425-.242-.486-.183-.486-.182-.547-.06-.485-.061-.486.06h-.486l-.547.122-.485.121-.486.243-.425.183-.547.425-.304.182-.668.729-.243.364-.303.547-.182.425-.183.485-.121.486-.06.547v1.032l.06.486.121.486.183.486.182.486.303.425.304.425.304.364.364.365.425.303.425.304.486.182.425.182.547.122.486.121.546.061h.486l.486-.06.486-.062zM645.52 448.268l-.486.122-.486.121-.547.243-.364.183-.547.425-.303.182-.668.729-.243.364-.304.547-.182.425-.243.485-.06.486-.122.547v1.032l.121.486.122.486.182.486.182.486.304.425.243.425.364.364.364.365.426.303.425.304.485.182.426.243.546.121.486.061.486.061h.486l.546-.06.486-.062.547-.182.425-.182.546-.304.304-.182.79-.728.242-.243.365-.547.243-.364.243-.547.121-.425.182-.547v-.485l.061-.547-.06-.486v-.546l-.183-.426-.121-.546-.243-.425-.243-.486-.304-.364-.364-.426-.365-.303-.364-.365-.486-.242-.425-.243-.486-.183-.486-.121-.546-.122-.486-.06-.547.06h-.485zM641.633 462.904l-.243-.485-.243-.426-.304-.425-.303-.364-.425-.364-.365-.304-.486-.304-.425-.243-.486-.182-.485-.121-.486-.061-.486-.06h-1.033l-.546.181-.486.122-.486.243-.425.182-.546.364-.243.183-.73.79-.242.303-.304.546-.182.425-.182.547-.121.425-.061.547v1.032l.06.486.122.546.182.426.182.485.304.426.304.425.364.364.304.364.425.304.425.304.486.243.486.182.485.121.486.122h.547l.486.06.546-.121.425-.06.547-.183.425-.182.547-.304.364-.182.729-.668.243-.304.425-.546.182-.365.243-.546.182-.425.121-.547.061-.486.06-.546-.06-.486-.06-.486-.183-.486-.121-.486zM673.273 451.852l-.546.182-.486.06-.486.243-.425.243-.547.365-.303.182-.668.79-.243.303-.304.547-.182.425-.182.546-.122.425-.06.547v1.032l.06.486.122.486.182.486.182.486.304.425.243.425.364.364.364.365.425.303.426.304.485.182.425.243.547.122.486.121h1.032l.486-.06.486-.061.547-.183.425-.182.546-.303.365-.183.728-.668.243-.303.425-.547.183-.364.243-.547.121-.425.182-.547.06-.485v-1.033l-.06-.486-.182-.485-.121-.486-.243-.486-.243-.425-.304-.425-.364-.425-.365-.304-.364-.365-.486-.242-.425-.243-.486-.183-.486-.121-.546-.06-.486-.122-.486.06h-.486zM812.466 452.702l-.546.121-.425.122-.547.243-.425.182-.547.425-.242.182-.73.729-.181.364-.365.547-.182.425-.182.486-.061.486-.121.546v1.033l.121.485.06.486.183.486.243.486.243.425.303.425.365.365.364.364.365.304.425.303.486.182.485.243.486.122.486.06.547.061h.486l.546-.06.486-.061.486-.182.425-.183.546-.303.365-.182.79-.73.181-.242.426-.547.182-.364.303-.547.122-.425.121-.546.061-.486.06-.547-.06-.486-.06-.546-.122-.425-.182-.547-.243-.425-.243-.486-.304-.364-.303-.425-.425-.304-.365-.364-.425-.243-.486-.243-.486-.182-.486-.122-.485-.121-.486-.061-.547.06h-.486zM823.58 437.276l.547-.182.425-.121.546-.304.304-.243.79-.668.242-.243.365-.546.243-.426.242-.485.122-.486.182-.486v-.486l.06-.546-.06-.486-.06-.547-.122-.486-.122-.486-.242-.425-.243-.485-.304-.365-.364-.425-.365-.364-.425-.304-.425-.243-.425-.243-.486-.182-.486-.182-.546-.06-.486-.062h-.547l-.486.061-.485.122-.486.121-.547.243-.364.182-.547.425-.303.182-.668.73-.243.364-.304.485-.182.425-.243.547-.06.486-.122.546v.972l.121.486.122.547.182.485.182.486.304.425.243.425.364.365.364.364.425.304.426.243.485.243.425.182.547.121.486.122.486.06h.486l.546-.06.486-.122zM868.945 424.037l-.425.122-.546.243-.426.182-.546.364-.243.243-.729.729-.182.364-.364.486-.182.425-.183.547-.06.486-.122.485v1.033l.122.486.06.546.243.425.182.486.243.425.304.425.364.365.365.425.425.243.364.303.486.243.486.183.486.121.486.121h.546l.486.061.547-.121.485-.061.486-.182.486-.122.486-.364.364-.182.79-.668.182-.304.425-.486.182-.425.304-.486.121-.486.122-.546.06-.425.061-.547-.06-.486-.061-.546-.122-.486-.182-.486-.243-.486-.243-.425-.303-.425-.304-.364-.364-.365-.425-.303-.426-.243-.425-.304-.546-.121-.425-.183-.547-.06-.486-.061h-.546l-.486.06-.547.122zM835.726 419.604l-.547.121-.425.122-.546.243-.365.182-.607.425-.243.182-.729.729-.182.364-.364.547-.122.425-.243.486-.06.486-.122.546v1.033l.122.486.06.485.243.486.183.486.242.425.304.425.364.365.365.364.425.304.425.303.425.183.486.242.486.122.486.06.546.061h.486l.547-.06.486-.061.546-.182.425-.182.486-.304.364-.182.79-.729.182-.243.425-.547.182-.364.304-.546.121-.426.122-.546.06-.486.061-.547-.06-.485-.061-.547-.122-.425-.182-.547-.182-.425-.243-.486-.364-.364-.304-.425-.364-.304-.425-.364-.425-.243-.426-.243-.546-.182-.425-.182-.547-.061-.486-.06-.546.06h-.486zM686.087 465.698l-.486.243-.425.182-.546.364-.304.243-.668.73-.243.303-.304.546-.182.425-.182.547-.121.425-.122.547.06.486v.546l.062.486.121.547.182.425.182.486.304.425.243.425.364.364.365.364.425.304.425.304.486.243.425.182.546.121.486.122h.486l.486.06.547-.12.485-.062.547-.182.425-.182.547-.304.364-.182.729-.668.243-.304.425-.546.182-.365.243-.546.121-.425.183-.547.06-.486v-.485l-.06-.547v-.486l-.183-.486-.121-.486-.243-.485-.243-.425-.303-.426-.365-.364-.364-.364-.365-.304-.486-.304-.425-.243-.485-.121-.486-.182-.547-.06-.486-.062h-.971l-.547.183-.486.121zM819.147 466.852l-.547.121-.486.122-.486.243-.425.182-.546.425-.304.182-.668.729-.243.364-.304.547-.182.425-.182.486-.121.486-.061.546v1.033l.06.486.122.485.182.486.182.486.304.425.243.425.364.365.365.364.425.304.425.303.486.182.425.243.547.122.485.06.547.061h.486l.486-.06.485-.061.547-.243.425-.122.547-.303.364-.243.729-.668.243-.243.425-.547.182-.364.243-.547.121-.425.183-.546.06-.486v-1.032l-.06-.547-.183-.486-.121-.486-.243-.425-.243-.486-.303-.364-.365-.425-.364-.304-.365-.364-.485-.243-.426-.243-.485-.182-.486-.182-.547-.061-.486-.06-.485.06h-.486z"/></g><g id="Grünflächen_05"><path class="cls-10" d="M170.915 389.421h9.899v-99.597h-32.187v301.95h24.413v-22.598h-2.125V389.421zM643.698 592.502h9.534l88.545.182h9.716v-9.413H563.291v9.11l80.407.121zM496.61 592.26h9.291v-8.989h-77.795v8.806l68.504.182zM974.373 593.049h10.08v-9.778H918.32v9.656l56.054.122zM851.03 592.867h9.899v-9.596h-52.046v9.535l42.147.06zM361.667 592.077h9.05v-8.806H226.907v8.563l134.76.243z"/></g><path class="cls-12" d="M856.192 451.79l-.79.122-.728.182-.79.243-.668.243-.729.425-.607.304-.79.607-.425.365-1.093 1.093-.303.486-.547.79-.303.607-.365.728-.243.729-.243.729-.121.729-.122.789V462.54l.122.729.121.79.243.728.243.729.365.668.303.729.425.607.486.607.547.547.486.546.668.486.607.486.668.364.668.365.729.243.728.243.73.182.789.121.79.061h.728l.79-.121.728-.061.79-.243.668-.182.79-.304.607-.304.789-.485.547-.365 1.153-1.032.304-.365.668-.79.304-.606.425-.73.304-.667.303-.79.182-.668.183-.79.06-.728.061-.79-.06-.789-.061-.79-.183-.728-.182-.729-.303-.729-.304-.728-.365-.669-.425-.607-.485-.607-.486-.607-.547-.486-.607-.547-.668-.425-.607-.425-.73-.304-.667-.303-.79-.183-.728-.242-.79-.061-.729-.06h-.79l-.728.06z" id="Sandkasten"/><g id="Ortbeton"><path class="cls-14" d="M892.994 402.235l.061.06.06-.06v-.06h-.12v.06zM855.463 447.54l-1.64.303-.182.061-1.579.486-.182.121-1.457.668-.183.122-1.396.91-.276.258-1.121.897-1.275 1.336v.121l-1.033 1.397-.06.121-.79 1.519-.06.121-.608 1.58v.12l-.425 1.701v.122l-.182 1.7v.425l14.757-14.21h-.486l-1.64.06-.182.06z"/><path class="cls-14" d="M851.334 453.734l1.275-.85 1.397-.607.486-.122.971-.303 1.58-.122h.06l1.457.06.73.122.789.182 1.093.365.303.121 1.397.73v.06l1.215.91.182.244.85.85.365.546.546.73.425.85.243.546.365 1.275.06.183.243 1.518V462.54l-.182 1.215-.06.303-.486 1.458-.669 1.397-.91 1.275-.923.976-.143.14-.331.22-.911.668-.79.425-.546.304-1.458.486-1.154.243-.364.06-1.518.061-.425-.06-1.093-.122-.911-.243-.547-.182-1.275-.547-.122-.06-1.336-.85-.121-.122-.972-.911-.304-.365-.668-.85-.425-.668-.364-.607-.425-1.093-.183-.365-.303-1.518v-.06l-.122-1.458.061-.729.06-.79.365-1.518.122-.364.425-1.032.79-1.337 1.032-1.153-7.166 6.862v.243l.06.547V463.208l.182 1.032.122.608.121.546.365 1.215v.06l.607 1.276.121.364.547.911.425.668.425.608.668.79.365.364.971.971.122.061 1.215.91.12.122 1.155.668.425.243.85.365.85.364.426.06 1.153.304.183.061.85.122.79.121h.181l.365.06h1.518l.122-.06 1.7-.182.121-.06 1.64-.365.182-.122 1.519-.607.182-.06 1.457-.79.183-.122 1.275-.971 1.336-1.276.06-.06 1.094-1.397.06-.06.911-1.458.061-.122.668-1.579.06-.121.487-1.64.06-.122.243-1.7v-.121l.061-1.215v-.486l-.06-.668-.061-.91v-.244l-.182-.85-.243-.972-.122-.243-.425-1.336-.06-.121-.608-1.154-.243-.486-.547-.79-.485-.728-.425-.486-.79-.91-.243-.183-1.154-1.032-1.275-.79-.304-.182-.971-.486-.668-.364-.608-.183-1.093-.364-.121-.06-1.094-.183-.607-.121-.364-.061h-.668l-.425-.06h-.061l-7.591 7.348 1.154-1.033zM519.505 501.832l-2.187 2.126.73-.729H415.898V499.704l.061-.058h102.087v3.583l1.458-1.397v-3.583H414.503v15.729H519.505V501.832zM647.645 501.832l-2.186 2.126.729-.729h-103.97V499.704l.06-.058h103.909v3.583l1.458-1.397v-3.583H540.821v15.729H647.645V501.832zM773.964 501.832l-2.187 2.126.729-.729H670.358v-3.583H772.506v3.583l1.458-1.397v-3.583H668.9v15.729h105.063V501.832zM798.134 498.25h-2.915v15.728h79.374V501.832l-2.186 2.126.729-.729h-76.46v-3.583h76.459v3.583l1.458-1.397v-3.583h-76.459zM393.186 501.832L391 503.958l.729-.729H289.58V499.704l.06-.058H391.73v3.583l1.457-1.397v-3.583H288.184v15.729H393.186V501.832zM320.007 463.815h.06l.911-.425.972-.182h.06l1.094-.06.304.06.728.122.608.182.364.182.729.425.182.06.79.73.668.789.121.182.425.79.121.425.183.546.06.73.061.363-.06 1.033v.06l-.244.972-.425.911-.06.061-.608.85 2.733-2.611.061-.304v-1.336l-.121-.91-.061-.304-.182-.608-.243-.607-.183-.304-.425-.79-.121-.12-.668-.85-.79-.669-.121-.121-.729-.426-.364-.242-.547-.183-.607-.243-.304-.06-.91-.182h-1.276l-.364.06-.85.122-1.215.425-1.093.607-.972.79-.79.91-.668 1.094-.425 1.154-.182.85 3.51-3.373.863-.575z"/><path class="cls-14" d="M324.44 475.84l1.215-.425 1.093-.608.971-.789.79-.91.668-1.094.425-1.154.182-.85-3.51 3.372-.862.575h-.061l-.911.425-.972.183h-.06l-1.033.06-.364-.06-.729-.122-.607-.182-.365-.182-.728-.425-.183-.061-.79-.729-.667-.79-.122-.182-.425-.789-.121-.425-.182-.547-.061-.728-.06-.365.06-1.032v-.061l.243-.972.425-.91.06-.061.608-.85-2.733 2.61-.06.304v1.337l.12.91.062.304.182.607.243.608.182.303.425.79.121.121.669.85.789.669.121.121.73.425.364.243.546.182.607.243.304.06.911.183h1.275l.365-.06.85-.122z"/><path class="cls-14" d="M321.89 467.277l-.304.182-.243.243-.182.304-.122.303-.121.304v.486l2.064-2.004h-.485l-.304.06-.304.122zM322.193 467.945l.182-.06.066-.061H322.982l.183.06.06.061.122.06.121.122.122.182.06.122.061.06.061.183v.364l-.06.182-.061.183-.122.182.972-.911v-.061l-.061-.06v-.122l-.06-.182v-.061l-.061-.06-.061-.183-.06-.06-.062-.061-.121-.183-.182-.121-.061-.122h-.06l-.183-.121h-.06l-.061-.06-.183-.061h-.181l-.062-.061-.971.971.182-.121z"/><path class="cls-14" d="M323.225 469.828l-.182.06-.066.061H322.436l-.182-.06-.061-.061-.122-.061-.121-.122-.121-.182-.061-.121-.06-.06-.062-.183v-.365l.061-.182.06-.182.122-.182-.971.91v.062l.06.06v.121l.061.183v.06l.06.061.062.183.06.06.061.061.122.182.182.122.06.121h.061l.182.122h.061l.06.06.183.061h.182l.06.06.973-.97-.183.12zM322.618 470.678h.304l.303-.06.304-.122.304-.183.243-.242.182-.304.121-.304.122-.303v-.486l-2.065 2.004h.182z"/></g><g id="Sitzplätze"><path class="cls-13" d="M579.688 457.5h15.122v-3.453l.01-.01h13.047v-26.66l-28.179-.06V457.499zM833.297 399.502h21.316v-20.587h-29.515v20.587h8.199zM827.406 325.594h14.818v-14.332h-41.6v14.332h26.782zM326.323 314.905H341.2v-14.332h-39.414v14.332h24.536zM245.795 314.784H287.395v-14.21h-41.6v14.21zM505.658 314.905h14.88v-14.332h-39.415v14.332h24.535zM451.852 314.905h14.878v-14.332h-40.203v14.332h25.325zM691.067 325.594h14.879v-14.332h-42.329v14.332h27.45zM630.823 314.905h14.879v-14.332h-39.839v14.332h24.96zM467.156 406.972h-21.074v20.405l5.223-.06 21.134-.061v-20.284h-5.283zM415.717 457.439v-3.34l-3.461 3.34h3.461z"/><path class="cls-13" d="M428.592 441.649l.06-11.357v-2.915h-28.178V457.5l11.782-.06 16.336-15.79z"/><path class="cls-13" d="M419.118 454.099h9.474v-12.45l-12.875 12.45h3.401zM315.634 406.972H294.5v20.405h26.418v-20.405h-5.284zM287.88 406.972h-21.194l.06 20.405h26.479v-20.405h-5.344zM630.884 427.256h21.134V406.91H624.446v20.345h6.438zM479.059 427.317l21.073.06v-20.405H473.714v20.284l5.345.06zM660.58 427.256h21.135V406.91H653.414l-.121 20.345h7.288z"/></g><g id="Möblierung"><path class="cls-11" d="M822.608 443.774l-.668.243-.425.122 1.336 4.372.425-.121.668-.182.668-.243.486-.122-1.275-4.372-.486.121-.729.182zM830.989 441.285l-.668.182-.668.243-.729.182 1.336 4.372.668-.182.73-.182.667-.243.668-.182.364-.122-1.336-4.372-.303.06-.729.244zM665.56 466.913l-.728-.122-.73-.06-.424-.061-.486 4.615h.425l.729.122.668.06.546.061.486-4.555-.486-.06zM672.848 467.702l-.729-.06-.728-.061-.486 4.554.668.061.728.06.73.122.728.061.364.06.486-4.615h-.364l-.729-.121-.668-.06zM648.252 474.322l.122-.425.243-.668.182-.669.182-.485-4.372-1.397-.183.486-.182.728-.243.668-.121.426 4.372 1.336zM650.985 465.577l.243-.73.182-.667.122-.304-4.373-1.397-.121.365-.243.668-.182.668-.243.728-.182.669 4.372 1.336.243-.668.182-.668zM695.5 459.625l-.607-.425-.546-.425-.426-.304-2.793 3.583.364.304.608.486.546.425.364.243 2.794-3.583-.304-.304zM689.124 454.706l-.547-.486-.546-.425-.608-.425-.243-.243-2.854 3.644.304.182.546.486.547.425.607.425.547.486 2.854-3.644-.607-.425zM476.326 469.16l.425.546.303.425 3.766-2.611-.304-.425-.364-.547-.425-.607-.243-.364-3.766 2.61.243.365.365.608zM485.07 473.714l-.363-.546-.426-.608-.425-.607-3.765 2.612.425.607.364.546.426.608.425.607.182.304 3.765-2.612-.182-.303-.425-.608zM466.548 455.678l.729-.183.668-.182.486-.121-1.093-4.434-.486.122-.668.121-.729.183-.425.121 1.093 4.433.425-.06zM475.718 448.694l-.364.06-.668.183-.729.182-.668.182-.728.121 1.093 4.494.728-.182.668-.182.73-.182.667-.122.365-.121-1.094-4.433zM307.557 453.248l.425-.607.182-.364-3.765-2.551-.243.364-.425.608-.364.546-.304.425 3.826 2.551.243-.364.425-.608zM302.699 460.475l.364-.546.425-.608.364-.607-3.765-2.55-.425.607-.425.546-.364.608-.425.607-.183.303 3.826 2.551.183-.304.425-.607zM850.423 425.373l.668.365.425.182 2.065-4.07-.425-.242-.608-.304-.668-.303-.364-.243-2.126 4.13.425.182.608.303zM860.322 425.252l-.668-.304-.608-.364-.668-.304-2.065 4.13.668.303.608.304.668.364.607.304.365.182 2.064-4.13-.303-.12-.668-.365zM829.47 463.512l-.364-.668-.182-.425-4.13 2.004.183.425.364.668.304.607.182.425 4.13-2.004-.183-.425-.303-.607zM826.252 456.892l-.364-.607-.304-.668-.304-.608-.182-.364-4.069 2.065.122.304.303.607.304.668.364.668.304.607 4.13-2.004-.304-.668zM499.464 465.151l.668.061.486.06.546-4.554-.485-.06-.73-.061-.728-.061-.425-.06-.486 4.554.425.06.729.061zM506.69 465.94l.73.122.728.061.668.06.365.062.546-4.555-.364-.06-.729-.062-.729-.06-.668-.122-.728-.06-.486 4.554.668.06zM826.677 447.358l.729-.183.668-.243.668-.182.729-.182.607-.243-1.336-4.372-.607.182-.73.243-.667.182-.668.182-.668.243-.729.182-.668.243 1.336 4.373.668-.183.668-.242zM666.471 471.65l.73.06.667.061.729.06.729.122.728.06.608.062.546-4.555-.668-.06-.728-.062-.668-.121-.73-.06-.728-.061-.729-.122-.668-.06-.546 4.554.728.122zM649.467 470.496l.182-.668.243-.73.182-.667.243-.668.182-.607-4.372-1.397-.182.607-.243.729-.182.668-.243.668-.183.668-.242.729-.183.668 4.373 1.336.182-.668.243-.668zM693.193 457.864l-.547-.425-.546-.425-.608-.486-.546-.425-.547-.425-.547-.426-2.793 3.644.486.365.607.485.547.426.546.425.547.425.607.486.547.425 2.854-3.644-.607-.425zM477.54 470.92l.425.547.426.608.425.607.364.607.425.547.365.546 3.765-2.611-.365-.547-.364-.546-.425-.607-.425-.608-.425-.546-.365-.608-.425-.607-3.765 2.611.364.608zM470.07 454.827l.669-.182.728-.182.668-.182.668-.182.668-.122-1.093-4.494-.668.182-.668.182-.728.183-.669.121-.668.182-.728.182-.668.183 1.093 4.433.668-.182.729-.122zM302.152 453.066l-.425.607-.364.547-.426.607-.425.608-.303.546 3.765 2.55.364-.546.425-.607.365-.547.425-.607.425-.607.364-.608.426-.607-3.826-2.55-.426.607-.364.607zM852.366 426.345l.607.364.668.304.608.304.668.364.668.304.546.303 2.065-4.069-.547-.303-.668-.365-.607-.303-.668-.304-.607-.364-.668-.304-.608-.304-2.125 4.07.668.303zM822.79 460.354l.304.668.364.607.304.668.304.607.303.668.304.668 4.13-2.064-.304-.608-.304-.668-.303-.607-.365-.668-.303-.668-.304-.607-.304-.608-4.13 2.004.305.608zM501.59 465.394l.667.061.73.122.728.06.729.061.668.06.668.122.486-4.555-.608-.121-.728-.06-.73-.062-.667-.12-.729-.062-.729-.06-.729-.122-.485 4.616.728.06zM822.912 448.815l10.506-3.158-.06-.243-10.507 3.158.061.243zM821.515 444.078l10.506-3.158-.06-.243-10.507 3.158.061.243zM663.131 471.528l10.932 1.215v-.183l-10.871-1.214-.06.182zM663.678 466.609l10.931 1.215v-.183l-10.87-1.214-.061.182zM651.593 463.876l-3.28 10.446.243.06 3.219-10.445-.182-.06zM643.82 472.925l3.278-10.446-.242-.06-3.219 10.445.182.06zM695.865 459.868l.121-.182-8.623-6.741-.122.121 8.624 6.802zM684.265 456.831l-.121.183 8.684 6.74.122-.182-8.685-6.74zM475.658 468.249l-.182.121 6.194 8.988.182-.121-6.194-8.988zM479.544 465.516l6.195 9.049.182-.122-6.194-9.049-.183.122zM466.245 456.042l10.627-2.611-.06-.243-10.628 2.672.06.182zM465.03 451.244l10.688-2.611-.06-.243L464.969 451l.06.243z"/><path class="cls-11" transform="rotate(-56.31 305.28 456.953)" d="M299.806 456.843h10.948v.219h-10.948z"/><path class="cls-11" d="M304.156 449.544l-6.134 9.11.183.12 6.133-9.109-.182-.121zM849.269 425.13l9.777 4.98.122-.182-9.778-4.98-.121.182zM851.516 420.697l9.777 4.98.122-.182-9.778-4.98-.121.182zM830.017 464.483l.183-.121-4.798-9.838-.243.121 4.858 9.838zM820.908 456.71l-.182.121 4.858 9.839.182-.122-4.858-9.838zM509.18 466.305l-10.87-1.214-.06.243 10.93 1.214v-.243zM509.727 461.386l-10.87-1.214-.061.242 10.931 1.215v-.243z"/></g><g id="Brunnen"><path class="cls-15" d="M322.01 463.208l-1.032.182-.971.425-.911.608-.729.728-.607.85-.486.972-.243 1.033-.06 1.032.12 1.093.304.972.183.243 4.018-3.893.293-.176.304-.121.304-.061h.303l.243.06h.122l.303.122.304.121.243.243.182.243.182.304.061.304.06.182v.486l-.12.303-.122.304-.182.304 3.765-3.644v-.061l-.06-.121-.122-.183-.061-.182-.121-.182-.061-.06-.182-.244-.183-.243-.243-.243-.242-.242-.243-.183-.183-.182-.121-.121-.122-.061-.182-.121-.182-.061-.121-.06-.061-.062-.243-.121-.972-.364-1.032-.183-1.093.061z"/><path class="cls-15" d="M323.53 470.496l-.305.121-.303.06h-.304l-.182-.06h-.182l-.304-.121-.304-.122-.242-.243-.183-.243-.182-.303-.06-.304-.061-.121V468.613l.121-.304.122-.303.182-.304-3.765 3.644v.06l.06.122.122.182.06.182.122.183.06.06.183.243.182.243.243.243.243.243.243.182.182.182.121.122.122.06.182.122.182.06.122.062.06.06.243.122.972.364 1.093.182 1.033-.06 1.032-.183.972-.425.91-.607.73-.729.607-.85.485-.972.243-1.032.061-1.033-.121-1.093-.304-.971-.182-.243-4.019 3.893-.293.176z"/><path class="cls-15" d="M323.165 469.888l.121-.06.243-.243.06-.122.062-.06.06-.122v-.06l.061-.122v-.425l-.06-.122v-.06l-.061-.122-.061-.06-.06-.061-.062-.122-.06-.06-.061-.061-.122-.061-.06-.06h-.122l-.06-.061H322.435l-.073.066-.11.055h-.06l-.122.121h-.06l-.122.182-.06.061-.061.061-.06.122-.062.121v.486l.061.121v.061l.06.122.062.06.06.122.061.06.06.061.061.06.122.062.06.06h.122l.122.061h.485l.122-.06h.06z"/></g><g id="Bäume_01"><path class="cls-18" d="M315.039 570.493l-3.585 2.474-1.197 2.473-2.39 2.473-1.197 3.71-1.195 2.474v3.71l1.195 3.71v2.473l2.393 3.71 1.194 2.474 3.587 2.473 2.391 1.237 3.585 1.236h5.978l3.585-1.236 2.391-1.237 2.39-1.236 2.392-2.474 2.393-2.473 1.194-3.71 1.197-3.71v-2.474l-1.197-3.71-1.194-3.71-1.197-2.474-2.39-2.473-2.391-2.473-2.391-1.237-3.587-1.237h-9.564l-2.39 1.237zM607.676 570.675l-3.711 1.237-2.474 1.236-2.473 2.474-1.235 2.473-1.238 3.71-1.236 3.71v6.184l1.236 3.71 1.238 2.474 2.473 2.473 2.473 2.473 3.712 1.237 2.473 1.237h9.893l3.709-2.474 2.473-1.237 2.473-2.473 2.474-2.473 1.238-3.71v-9.894l-1.238-2.473-1.236-3.71-2.473-2.474-2.473-2.473-2.474-1.237-3.71-1.237h-6.183l-3.711 1.237zM666.02 570.968h-2.472l-3.71 1.195-2.472 2.391-2.474 2.391-2.473 2.391-1.238 2.391v10.76l1.238 2.39 1.235 3.587 2.474 2.39 2.473 1.196 2.473 2.391 3.711 1.196H670.97l3.709-1.196 3.71-1.195 2.474-1.196 2.473-2.39 1.236-3.587 1.238-2.391 1.235-3.587v-5.976l-1.235-3.587-1.238-2.391-2.473-2.391-2.474-2.391-3.708-1.196-2.474-1.195-3.71-1.196-3.712 1.196z"/><path class="cls-18" d="M694.746 571.15h-2.473l-3.709 1.196-2.473 2.39-2.473 2.392-2.474 2.39-1.238 2.392v10.759l1.238 2.39 1.236 2.392 2.473 3.586 2.473 1.195 2.474 2.391 3.71 1.196H699.696l3.709-1.196 2.473-1.195 3.712-1.196 2.473-2.39 1.235-3.587 1.238-2.391 1.236-3.586V584.3l-1.236-3.587-2.473-2.391-1.238-2.39-2.473-2.392-3.71-1.195-2.472-1.196-3.712-1.195-3.71 1.195zM812.15 572.337l-2.474 1.236-2.473 2.474-1.238 2.473-2.473 3.71v9.894l1.238 2.473 1.235 3.71 2.473 2.474 2.474 2.473 2.476 1.237 3.708 1.237H823.281l3.709-1.237 3.71-1.237 2.474-1.236 2.473-2.474 1.236-2.473 1.238-3.71 1.235-2.474v-7.42l-1.235-2.473-1.238-3.71-2.474-2.474-2.473-2.473-3.709-1.237-2.473-1.236h-9.893l-3.711 2.473z"/><path class="cls-18" d="M847.73 571.21h-3.588l-2.391 1.197-3.588 2.39-1.194 2.391-2.391 2.391-1.197 2.391-1.194 3.587v3.586l1.194 3.586v2.391l2.391 2.391 1.197 3.587 3.585 1.195 2.39 2.391 3.589 1.196h5.978l3.585-1.196 2.391-1.195 2.391-2.391 2.391-1.196 2.391-3.586 1.197-2.39 1.194-3.588v-3.586l-1.194-2.39-1.197-3.587-1.194-2.391-2.391-2.391-2.391-2.391-2.391-1.195-3.588-1.196-2.39-1.196-3.586 1.196zM241.476 570.36l-2.475 1.196-3.709 2.391-2.473 1.196-1.238 3.586-1.236 2.391-1.238 3.586v5.977l1.238 3.587 2.474 2.391 1.235 2.391 2.473 2.39 3.712 1.197 2.473 1.195 3.711 1.195h3.709l2.473-1.195 3.711-1.195 2.474-2.392 2.473-2.39 2.473-2.391 1.236-2.392V583.511l-1.236-3.586-1.238-2.392-2.473-3.586-2.473-1.195-2.474-2.391h-3.708l-3.712-1.196h-2.473l-3.709 1.196zM577.84 570.847l-2.39 1.195-2.391 1.196-2.391 2.39-2.391 3.587-1.197 2.39-1.194 3.587v2.391l1.194 3.587 1.197 3.586 1.194 2.391 2.391 2.39 2.39 2.392 2.392 1.195 3.587 1.196 2.391 1.195 3.588-1.195h3.585l2.391-1.196 2.391-2.39 2.391-2.392 2.391-2.39 1.197-3.587 1.194-2.39v-3.587l-1.194-3.587v-2.39l-2.391-3.587-1.197-2.39-3.585-1.196-2.391-2.391-3.588-1.196h-5.978l-3.586 1.196zM930.537 571.283l-2.39 2.473-2.391 2.473-2.391 2.474-1.194 3.71v2.473l-1.197 3.71 1.197 3.71 1.194 2.474 1.197 3.71 2.39 2.473 2.391 1.237 2.39 2.473 3.586 1.237h5.978l3.585-1.237 2.39-1.236 3.588-1.237 2.39-2.474 1.198-3.71 1.194-2.473 1.196-3.71v-6.183l-1.196-3.71-2.391-2.474-1.194-2.473-2.391-2.474-3.587-1.236-2.391-1.237h-10.76l-2.39 1.237z"/><path class="cls-18" d="M958.327 571.283l-2.473 2.473-2.474 2.473-1.238 2.474-1.235 3.71-1.238 2.473v7.42l1.238 2.474 1.235 3.71 2.474 2.473 2.473 1.237 3.711 2.473 2.474 1.237H970.693l2.474-1.237 3.708-1.236 2.474-1.237 2.476-2.474 2.473-3.71 1.235-2.473v-9.893l-1.235-3.71-1.238-2.474-2.473-2.473-2.474-2.474-2.473-1.236-3.711-1.237h-9.893l-3.71 1.237zM148.985 570.421l-3.709 1.196-2.476 2.39-2.476 2.392-1.233 2.39-1.237 2.392-1.238 3.586v5.977l1.238 3.587 1.237 2.39 2.471 2.392 2.476 2.39 3.709 1.196 2.476 1.196 3.708 1.195h3.709l2.476-1.195 3.708-1.196 2.471-2.39 2.476-2.392 1.238-2.39 2.47-2.392v-9.563l-1.237-3.587-1.233-2.39-2.476-3.587-2.47-1.195-2.476-2.392h-3.71l-3.708-1.195h-2.476l-3.708 1.195zM347.266 570.482l-3.709 1.196-2.473 2.39-2.474 2.392-1.238 2.39-1.235 2.391-1.238 3.587v5.977l1.238 3.587 1.235 2.39 2.474 2.391 2.473 2.392 3.711 1.195 2.474 1.195 3.708 1.196h3.711l2.474-1.196 3.711-1.195 2.473-2.39 2.474-2.392 1.235-2.39 2.473-2.392v-9.563l-1.235-3.587-1.238-2.39-2.473-2.392-2.474-2.39-3.708-2.392h-2.474l-3.71-1.195h-3.712l-2.473 1.195zM720.556 571.1l-2.391 1.237-3.588 1.236-1.194 2.474-2.39 2.473-1.197 3.71-1.195 2.474v3.71l1.195 3.71v2.473l2.39 3.71 1.197 2.474 3.585 2.473 2.391 1.237 3.588 1.237h9.564l2.39-2.474 2.392-1.236 2.39-2.474 2.392-2.473 1.196-3.71 1.194-2.474v-3.71l-1.194-3.71-1.196-2.473-1.195-3.71-2.39-2.474-2.392-2.473-2.39-1.237-3.588-1.236h-5.979l-3.585 1.236zM473.82 571.912l-2.473 1.236-2.474 2.474-1.235 2.473-1.238 3.71-1.235 2.474v7.42l1.235 2.473 1.238 3.71 2.473 2.474 2.474 2.473 3.708 1.237 2.474 1.237h7.42l2.473-1.237 3.711-1.237 2.473-1.237 2.474-2.473 1.238-2.473 2.473-3.71v-9.894l-1.238-2.473-1.235-3.71-2.474-2.474-2.475-2.473-3.71-1.237-2.473-1.237h-9.893l-3.71 2.474z"/><path class="cls-18" d="M449.11 570.543l-3.709 1.195-2.473 2.391-2.473 2.391-1.238 2.391-2.474 2.391v9.563l1.238 3.587 1.236 2.391 2.473 3.587 2.473 1.195 2.474 2.391h3.71l3.71 1.196h2.473l3.711-1.196 3.711-1.195 2.474-2.391 2.473-1.196 1.235-3.586 1.238-2.391 1.236-3.587v-5.977l-1.236-3.586-1.238-2.391-2.473-2.391-2.473-2.391-3.71-1.196-2.472-1.195-3.712-1.196h-3.71l-2.474 1.196zM267.366 571.67l-2.39 1.236-2.392 2.473-2.39 2.473-1.197 3.71v2.474l-1.195 3.71 1.195 3.71 1.196 2.473 1.195 3.71 2.39 2.474 2.391 2.473 2.391 1.237 3.588 1.237h5.978l3.586-1.237 2.39-1.237 3.588-1.236 2.391-2.474 1.195-2.473 1.196-3.71 1.195-3.71v-6.184l-1.195-3.71-2.39-2.473-1.197-2.474-2.391-2.473-3.585-1.237-2.391-1.236h-10.761l-2.39 2.473z"/></g><g id="Bäume_02"><path class="cls-18" d="M298.387 459.705h-2.231l-1.117 1.116h-2.232l-1.114 1.116-1.117 2.231-1.114 1.116-1.117 1.116V471.978l1.117 2.232 1.114 1.116 1.117 1.115 1.114 1.116 1.117 1.116 2.232 1.116H299.5l2.232-1.116h1.116l2.232-1.116 1.116-1.116 1.115-2.23v-3.349l1.117-2.231-1.117-1.116v-2.231l-1.115-1.116-1.116-1.116-1.115-1.115-2.233-1.116-1.115-1.116h-2.231M318.817 442.316H315.27l-2.362 1.181-1.18 1.181-1.183 1.182-1.18 1.181-1.183 2.363v5.907l1.183 1.182v2.362l2.363 1.182 1.18 1.181 1.182 1.182h8.271l1.18-1.182 1.182-1.181 2.363-1.182v-1.18l1.18-2.364v-7.088l-1.18-2.363-1.182-1.182-2.363-1.181-1.18-1.181h-3.545M226.693 292.14h-3.826l-1.913 1.005-.957 1.004-1.913 1.004-.955 1.004-.958 2.008v2.01l-.955 2.007.955 2.009v1.004l.958 2.008.955 2.008.957 1.005 1.913 1.004 1.913 1.004h4.781l1.913-1.004h1.913l.957-2.009.956-1.004.957-2.008.956-2.008v-3.013l-.956-2.008v-2.009l-.957-2.008-1.913-1.004-.955-1.004-1.913-1.005h-1.913M365.136 292.474h-1.913l-1.912.957h-1.913l-1.913.957-.955.956-.957 1.913-.956.956-.957 1.913v3.825l.957 1.913v1.913l1.913.956.955 1.913.958.956h1.912l1.913.956h3.825l1.913-.956.955-.956 1.913-.957.957-1.912.958-.957v-1.913l.955-1.912v-1.913l-.955-1.913-.958-1.912-.957-.957-.955-.956-1.913-1.913h-.957l-1.913-.957M457.537 445.11h-1.913l-1.913.956H451.8l-1.913.956-.955.957-.958 1.912-.955.957-.957 1.912v3.826l.957 1.912v1.914l1.913.956.955 1.913.957.956h1.913l1.913.956h3.825l1.913-.956.955-.956 1.913-.957.957-1.912.957-.957v-1.913l.956-1.913v-1.912l-.956-1.913-.957-1.913-.957-.956-.956-.956-1.912-1.913h-.958l-1.912-.957"/><path class="cls-18" d="M467.061 456.405h-1.913l-1.912.956h-1.913l-1.912.957-.956.957-.957 1.912-.956.957-.957 1.912v3.825l.957 1.913v1.913l1.913.957.956 1.912.957.957h1.912l1.913.956h3.825l1.913-.956.955-.957 1.913-.956.957-1.913.958-.956v-1.913l.955-1.913v-1.913l-.955-1.912-.958-1.913-.957-.956-.955-.957-1.913-1.913h-.957l-1.913-.956M493.954 461.385h-1.912l-1.913.956h-1.913l-1.912.957-.956.956-.957 1.913-.955.956-.958 1.913v3.825l.958 1.913v1.913l1.912.957.956 1.912.957.957h1.913l1.912.956h3.826l1.912-.957.956-.956 1.912-.956.958-1.913.957-.956v-1.913l.955-1.913v-1.913l-.955-1.912-.957-1.913-.958-.956-.955-.957-1.913-1.913h-.957l-1.913-.956M503.742 442.083h-1.913l-1.912.956h-1.913l-1.913.957-.955.956-.957 1.913-.956.956-.957 1.913v3.825l.957 1.913v1.913l1.913.956.955 1.913.958.956h1.912l1.913.957h3.825l1.913-.957.955-.956 1.913-.956.957-1.913.958-.956v-1.913l.955-1.913v-1.913l-.955-1.912-.958-1.913-.957-.956-.955-.957-1.913-1.913h-.957l-1.913-.956M239.609 286.159h-1.913l-1.914.956h-1.913l-1.913.956-.955.957-.957 1.912-.956 1.914-.957.955V299.547l.957 1.913.956.957 1.912 1.913.958.956h1.912l1.913.956h3.825l1.913-.956.957-.956 1.913-.957.955-1.913.958-.955v-1.913l.955-1.913-.955-1.912v-1.913l-.958-1.914-.955-.956-.957-.956-1.913-.957-1.913-.956-.955-.956M349.852 285.248h-3.825l-1.913.957-.955.955-1.913.958-.957 1.912-.955.956v1.912l-.958 1.914v1.913l.958 1.912.955.957.957 1.912.956.957 1.912.956.958.956 1.912.957h1.913l1.913-.957h1.912l1.913-.956.955-.956.958-1.913.957-1.913.955-.956v-3.825l-.955-1.913v-1.913l-.957-.957-1.913-1.913-.957-.955h-1.913l-1.913-.957M290.743 446.314h-1.058l-2.114 1.057-2.114 1.057-1.058 1.057-1.056 1.057-1.058 1.057-1.056 2.114V461.113l1.056 1.057 2.114 2.114 1.058 1.057 2.114 1.057h6.342l2.114-1.057 1.058-1.057 2.114-1.057 1.056-2.114v-1.057l1.058-2.115v-2.114l-1.058-2.114v-1.057l-1.056-2.114-1.058-1.057-2.114-1.057-1.056-1.057-2.114-1.057h-2.114M194.748 285.52h-3.826l-1.912 1.004-.956 1.005-1.912 1.003-.958 1.006-.955 2.008v2.008l-.957 2.009v2.008l.957 1.004.955 2.009.958 2.01.955 1.002 1.913 1.006.957 1.003h5.738l1.913-1.003 1.912-1.006.956-1.003.957-1.005.955-2.008.958-2.009V293.554l-.958-1.004v-2.008l-.955-2.01-1.913-1.003-.957-1.005-1.913-1.003h-1.912M155.7 321.011h-1.912l-.957.958-1.91.955-.958 1.913-.957 1.912v.958l-.958 1.912v1.913l.958 1.913.957 1.912.957.958.954 1.91 1.914.958.958.957h5.735l1.915-.957 1.911-.958.957-.955.958-1.913.953-.957.957-1.91V328.661l-.957-1.913v-.955l-1.91-1.913-.958-.957-.957-.955-1.911-.958-1.915-.955h-1.91l-1.915.955z"/><path class="cls-18" d="M160.252 295.772l-3.806 1.224-2.54 1.22-1.266 2.444-2.54 2.444-1.27 2.444v8.555l1.27 3.665 1.27 2.447 1.27 2.444 2.536 1.22 2.54 1.224 3.806 1.22 2.535 1.224 3.81-1.224h2.536l2.54-1.22 2.536-1.224 2.54-2.444 1.265-2.444 1.27-2.444 1.27-3.667v-6.109l-1.27-2.444-1.27-2.444-2.535-2.443-2.54-2.444-2.536-1.224-2.54-1.22h-6.341l-2.54 1.22zM153.973 535.7l-2.006 1.005-1.005 1.004-1.005 1.004-1.005 2.008-1.005 2.009v6.025l1.005 1.005 1.005 2.009 2.01 1.003 1.001 1.005 2.01 1.003h7.027l2.01-1.003 1.001-2.009 2.01-1.005 1.005-2.008v-7.029l-1.005-2.009-1.005-2.008-1.005-1.004-2.006-1.006-2.01-1.003H155.983l-2.01 1.003zM528.57 284.954h-1.912l-1.913.956h-1.912l-1.913.957-.955.957-.958 1.912-.955.957-.957 1.912v3.826l.957 1.912v1.913l1.913.957.955 1.912.957.957h1.913l1.912.956h3.826l1.912-.956.956-.957 1.913-.956.957-1.913.957-.956v-1.913l.955-1.913v-1.912l-.955-1.913-.957-1.913-.957-.956-.956-.956-1.913-1.914h-.957l-1.912-.956M582.094 292.414h-1.913l-1.912.956h-1.913l-1.913.957-.955.956-.957 1.913-.956.956-.957 1.913v3.825l.957 1.913v1.913l1.913.956.955 1.913.958.956h1.912l1.913.957h3.825l1.913-.957.955-.956 1.913-.956.957-1.913.957-.956v-1.913l.956-1.913v-1.913l-.956-1.912-.957-1.913-.957-.956-.955-.957-1.913-1.913h-.957l-1.913-.956"/><path class="cls-18" d="M600.728 286.22h-1.913l-1.912.956h-1.913l-1.913.956-.955.957-.957 1.912-.956.957-.957 1.912v3.826l.957 1.912v1.914l1.913.956.955 1.913.958.956h1.912l1.913.956h3.825l1.913-.956.955-.956 1.913-.957.957-1.912.957-.957v-1.913l.956-1.913v-1.912l-.956-1.913-.957-1.913-.957-.956-.955-.956-1.913-1.913h-.957l-1.913-.957M662.337 288.507h-1.912l-1.913.956h-1.913l-1.912.957-.956.956-.957 1.913-.955.956-.958 1.913v3.825l.958 1.913v1.913l1.912.956.956 1.913.957.956h1.913l1.912.957h3.826l1.912-.957.956-.956 1.912-.956.958-1.913.957-.956v-1.913l.955-1.913v-1.913l-.955-1.912-.957-1.913-.958-.956-.955-.957-1.913-1.913h-.957l-1.913-.956M638.067 454.917h-1.913l-1.913.956h-1.912l-1.913.957-.955.957-.958 1.912-.955.957-.957 1.912v3.826l.957 1.912v1.913l1.913.957.955 1.912.957.957h1.913l1.913.956h3.825l1.913-.956.955-.957 1.913-.956.957-1.913.957-.956v-1.913l.956-1.913v-1.912l-.956-1.913-.957-1.913-.957-.956-.956-.956-1.912-1.914h-.958l-1.912-.956"/><path class="cls-18" d="M647.814 443.54H645.9l-1.912.957h-1.913l-1.913.957-.955.956-.957 1.913-.956.956-.957 1.913v3.825l.957 1.913v1.913l1.913.956.955 1.913.958.956h1.912l1.913.956h3.825l1.913-.956.955-.956 1.913-.957.957-1.912.958-.957v-1.913l.955-1.912v-1.913l-.955-1.913-.958-1.912-.957-.957-.955-.956-1.913-1.913h-.957l-1.913-.957M675.323 447.053h-1.913l-1.912.956h-1.913l-1.913.957-.955.956-.957 1.913-.956.956-.957 1.913v3.825l.957 1.913v1.913l1.913.956.955 1.913.958.956h1.912l1.913.957h3.825l1.913-.957.955-.956 1.913-.956.957-1.913.958-.956v-1.914l.955-1.912v-1.913l-.955-1.913-.958-1.912-.957-.957-.955-.956-1.913-1.913h-.957l-1.913-.956"/><path class="cls-18" d="M689.171 460.504h-1.913l-1.912.957h-1.913l-1.913.956-.955.957-.957 1.912-.956.957-.957 1.912v3.826l.957 1.912v1.914l1.913.956.955 1.913.958.956h1.912l1.913.956h3.825l1.913-.956.955-.956 1.913-.957.957-1.912.958-.957v-1.913l.955-1.913v-1.912l-.955-1.913-.958-1.913-.957-.956-.955-.956-1.913-1.913h-.957l-1.913-.957M861.098 428.702h-1.913l-1.913.956h-1.912l-1.913.957-.955.957-.958 1.912-.955.957-.957 1.912v3.825l.957 1.913v1.913l1.913.957.955 1.912.957.957h1.913l1.913.956h3.825l1.913-.956.955-.957 1.913-.956.957-1.913.957-.956v-1.913l.956-1.913v-1.913l-.956-1.912-.957-1.913-.957-.956-.956-.957-1.912-1.913h-.958l-1.912-.956"/><path class="cls-18" d="M871.715 419.238h-1.912l-1.913.957h-1.913l-1.912.956-.956.957-.957 1.912-.955.957-.958 1.912v3.826l.958 1.912v1.914l1.912.956.956 1.913.957.956h1.913l1.912.956h3.826l1.912-.956.956-.956 1.912-.957.958-1.912.957-.957v-1.913l.955-1.913v-1.912l-.955-1.913-.957-1.913-.958-.956-.955-.956-1.913-1.913h-.957l-1.913-.957M821.32 462.195h-1.913l-1.913.956h-1.912l-1.913.957-.955.956-.958 1.913-.955.956-.957 1.913v3.825l.957 1.913v1.913l1.913.956.955 1.913.957.956h1.913l1.913.957h3.825l1.913-.957.955-.956 1.913-.956.957-1.913.957-.956v-1.914l.956-1.912v-1.913l-.956-1.913-.957-1.912-.957-.957-.956-.956-1.912-1.913h-.958l-1.912-.956M1031.86 552.247h-1.912l-1.913.956h-1.913l-1.912.957-.956.957-.957 1.912-.955.957-.958 1.912v3.826l.958 1.912v1.913l1.912.957.956 1.912.957.957h1.913l1.912.956h3.826l1.912-.956.956-.957 1.912-.956.958-1.913.957-.956v-1.913l.955-1.913v-1.912l-.955-1.913-.957-1.913-.958-.956-.955-.956-1.913-1.914h-.957l-1.913-.956M1031.435 530.749h-1.912l-1.913.956h-1.913l-1.912.957-.956.956-.957 1.913-.955.956-.958 1.913v3.825l.958 1.913v1.913l1.912.956.956 1.913.957.956h1.913l1.912.957h3.826l1.912-.957.956-.956 1.912-.956.958-1.913.957-.956v-1.914l.955-1.912v-1.913l-.955-1.913-.957-1.912-.958-.957-.955-.956-1.913-1.913h-.957l-1.913-.956M1031.435 509.22h-1.912l-1.913.956h-1.913l-1.912.957-.956.956-.957 1.913-.955.956-.958 1.913v3.825l.958 1.913v1.913l1.912.957.956 1.912.957.957h1.913l1.912.956h3.826l1.912-.957.956-.956 1.912-.956.958-1.913.957-.956v-1.913l.955-1.913v-1.913l-.955-1.912-.957-1.913-.958-.956-.955-.957-1.913-1.913h-.957l-1.913-.956M1030.524 476.092h-1.912l-1.913.956h-1.913l-1.912.957-.956.956-.957 1.913-.955.956-.958 1.913v3.825l.958 1.913v1.913l1.912.956.956 1.913.957.956h1.913l1.912.957h3.826l1.912-.957.956-.956 1.912-.956.958-1.913.957-.956v-1.914l.955-1.912v-1.913l-.955-1.913-.957-1.912-.958-.957-.955-.956-1.913-1.913h-.957l-1.913-.956"/><path class="cls-18" d="M814.68 448.034h-1.913l-1.913.957h-1.912l-1.913.957-.955.956-.958 1.913-.955.956-.957 1.913v3.825l.957 1.913v1.913l1.913.956.955 1.913.957.956h1.913l1.913.956h3.825l1.913-.956.955-.956 1.913-.957.957-1.912.957-.957v-1.913l.956-1.912v-1.913l-.956-1.913-.957-1.912-.957-.957-.956-.956-1.912-1.913h-.958l-1.912-.957M823.678 422.113h-1.913l-1.912.956h-1.913l-1.913.957-.955.956-.957 1.913-.956.956-.957 1.913v3.825l.957 1.913v1.913l1.913.956.955 1.913.958.956h1.912l1.913.957h3.825l1.913-.957.955-.956 1.913-.956.957-1.913.957-.956v-1.913l.956-1.913v-1.913l-.956-1.912-.957-1.913-.957-.956-.955-.957-1.913-1.913h-.957l-1.913-.956"/><path class="cls-18" d="M838.05 414.947h-1.912l-1.913.956h-1.912l-1.913.957-.955.956-.958 1.913-.955.956-.957 1.913v3.825l.957 1.913v1.913l1.913.956.955 1.913.957.956h1.913l1.913.957h3.825l1.913-.957.955-.956 1.913-.956.957-1.913.957-.956v-1.914l.956-1.912v-1.913l-.956-1.913-.957-1.912-.957-.957-.956-.956-1.912-1.913h-.958l-1.912-.956M717.815 301.26h-1.912l-1.913.956h-1.913l-1.912.957-.956.957-.957 1.912-.955.957-.958 1.912v3.826l.958 1.912v1.913l1.912.957.956 1.912.957.957h1.913l1.912.956h3.826l1.912-.956.956-.957 1.912-.956.958-1.913.957-.956v-1.913l.955-1.913v-1.912l-.955-1.913-.957-1.913-.958-.956-.955-.956-1.913-1.914h-.957l-1.913-.956M783.96 303.406h-1.912l-1.913.956h-1.913l-1.912.957-.956.956-.957 1.913-.955.956-.957 1.913v3.825l.957 1.913v1.913l1.912.956.956 1.913.957.956h1.913l1.912.957h3.826l1.912-.957.956-.956 1.912-.956.958-1.913.957-.956v-1.913l.955-1.913v-1.913l-.955-1.912-.957-1.913-.958-.956-.955-.957-1.913-1.913h-.957l-1.913-.956"/><path class="cls-18" d="M796.481 296.726h-1.913l-1.912.956h-1.913l-1.913.957-.955.956-.957 1.913-.956.956-.957 1.913v3.825l.957 1.913v1.913l1.913.956.955 1.913.958.956h1.912l1.913.957h3.825l1.913-.957.955-.956 1.913-.956.957-1.913.958-.956v-1.914l.955-1.912v-1.913l-.955-1.913-.958-1.912-.957-.957-.955-.956-1.913-1.913h-.957l-1.913-.956"/></g></g><path class="cls-1" d="M480.395 272.394l-139.194-.303-40.142-.122v7.895l-152.432-.364v10.324-1.761 281.113h31.329l835.045-.237V451.548H896.03l-3.083-51.681h-38.335V281.139h-8.684l-7.227-.06-182.251-.365-16.762-.06h-.303v-7.835l-85.812-.242v-10.871h-73.18v10.688z" id="Parzelle"/><g id="Strassen"><path class="cls-1" d="M.142 612.725l77.066 8.563 13.907 1.519 8.38.971 54.111 6.195.972 34.19h9.11l41.903.061 20.223.061 27.45-25.87h748.243c9.712.02 19.002 3.913 25.751 10.897l-.046.047a38.654 38.654 0 0 1 9.893 26.146l.062.015-5.405 68.382-6.437 51.924M.142 586.308l148.485 16.336v-10.081l222.697.364 63.462.122 63.463.06 21.863.061 126.865.243 144.052.182 133.06.243 71.114.061h8.502-.045a34.404 34.404 0 0 0 24.729-10.221l.034.008a37.44 37.44 0 0 0 9.715-24.835l.001.007-.364-20.952-1.093-24.96-.608-13.543-1.032-22.227-11.235-188.81-2.308-37.591-11.737-186.915a68.17 68.17 0 0 0-22.978-46.83l-.015.03A68.108 68.108 0 0 0 950.133.7l.008-.012-13.057-.546-305.714 18.34-32.977 2.004-52.653 3.34-38.078 2.673-38.138 2.915-38.078 3.036-38.077 3.34-40.447 3.705-40.446 4.008-40.385 4.19-40.386 4.434-40.385 4.676-40.325 4.919-1.275.121-8.867 1.033-39.9 5.101-39.838 5.344-39.84 5.527L.143 81.945M1145.449 795.826l2.794-18.887 2.247-18.34 2.004-18.34 1.76-18.402 1.58-18.401 1.275-18.401 1.093-18.462.85-18.401.608-18.462.364-18.462.122-18.523-.061-18.462-.364-18.462-.547-18.462-.79-18.4-1.032-18.463-1.275-18.462-1.458-18.4-2.915-37.41-2.733-37.47-2.672-40.386-2.49-40.386-2.186-40.385-1.943-40.447-1.7-40.385-1.458-40.446-.061-6.62.243-6.62.486-6.619.668-6.559.971-6.559 1.154-6.498 1.458-6.437 1.64-6.437 1.943-6.316 2.125-6.256 2.369-6.194 2.611-6.073 2.794-5.952 3.036-5.89 3.28-5.77 3.461-5.587 3.705-5.526 3.887-5.345 4.069-5.222 4.25-5.04 4.434-4.92 4.615-4.737 1.033-.972"/></g><g id="Häuser"><path class="cls-4" transform="rotate(-90 865.469 541.577)" d="M837.87 511.015h55.198v61.125H837.87z" id="Townhouse_04_A"/><path class="cls-4" transform="rotate(-90 804.431 541.577)" d="M776.833 511.103h55.198v60.949h-55.198z" id="Townhouse_04_B"/><path class="cls-4" d="M896.031 451.548h118.97v117.628h-118.97z" id="Haus_04"/><path class="cls-4" transform="rotate(-90 742.044 541.577)" d="M714.446 509.665h55.198v63.825h-55.198z" id="Townhouse_06_A"/><path class="cls-4" transform="rotate(-90 678.889 541.577)" d="M651.29 510.334h55.198v62.487H651.29z" id="Townhouse_06_B"/><path class="cls-4" d="M654.447 325.472v101.905h44.364V457.5h86.266v-57.632h69.536v-74.395H654.447z" id="Haus_06"/><g id="Linien_02"><path class="cls-6" d="M874.593 513.978v55.198M795.219 569.176v-55.198M773.957 513.978v55.198M668.901 569.176v-55.198"/></g><path class="cls-5" transform="rotate(-90 618.768 541.577)" d="M591.169 512.7h55.198v57.754h-55.198z" id="Townhouse_08_A"/><path class="cls-5" transform="rotate(-90 554.698 541.577)" d="M527.099 506.384h55.198v70.386h-55.198z" id="Townhouse_08_B"/><path class="cls-5" d="M473.076 314.784v112.593h44.364V457.5h90.427v-30.122h46.58V314.784H473.076z" id="Haus_08"/><path class="cls-5" transform="rotate(-90 487.606 541.577)" d="M460.007 509.679h55.198v63.797h-55.198z" id="Townhouse_10_A"/><path class="cls-5" transform="rotate(-90 424.447 541.577)" d="M396.848 510.317h55.198v62.521h-55.198z" id="Townhouse_10_B"/><path class="cls-5" d="M293.862 314.784v112.593h44.546V457.5h90.245v-30.122h44.423V314.784H293.862z" id="Haus_10"/><path class="cls-5" transform="rotate(-90 361.288 541.577)" d="M333.689 509.679h55.198v63.797h-55.198z" id="Townhouse_12_A"/><path class="cls-5" transform="rotate(-90 298.523 541.577)" d="M270.924 510.711h55.198v61.732h-55.198z" id="Townhouse_12_B"/><path class="cls-5" d="M267.657 427.377v141.799H173.04V391.668h9.838v-76.884h110.984v112.593h-26.205z" id="Haus_12"/><g id="Linien_01"><path class="cls-2" d="M267.657 569.176v-55.198M647.645 513.978v55.198M519.505 513.978v55.198M393.186 513.978v55.198M540.821 569.176v-55.198M414.503 569.176v-55.198M288.184 569.176v-55.198"/></g></g><g id="Legende"><path class="cls-16" d="M497.648 617.634l-.49.49c-.589-.56-1.247-.924-2.423-.924-1.457 0-2.312.784-2.312 2.06 0 .573.154 1.022.505 1.316.35.293.868.49 1.429.574l1.162.181c.924.141 1.317.295 1.779.687.532.463.854 1.106.854 1.919 0 1.682-1.274 2.76-3.361 2.76-1.471 0-2.41-.407-3.32-1.317l.532-.532c.897.896 1.64 1.177 2.83 1.177 1.583 0 2.563-.757 2.563-2.06 0-.602-.168-1.078-.546-1.4-.35-.309-.645-.406-1.443-.532l-1.163-.183c-.756-.112-1.344-.336-1.779-.714-.518-.435-.784-1.05-.784-1.85 0-1.667 1.177-2.731 3.095-2.731 1.233 0 2.018.336 2.872 1.08zM504.931 620.366c.687.686.869 1.806.869 2.87s-.182 2.186-.869 2.873c-.35.35-.938.588-1.653.588-.77 0-1.4-.168-2.002-.953v4.09h-.715v-9.973h.715v.869c.602-.785 1.232-.953 2.002-.953.715 0 1.303.238 1.653.589zm-3.655 2.87c0 1.402.251 2.83 1.904 2.83s1.906-1.428 1.906-2.83c0-1.4-.253-2.828-1.906-2.828s-1.904 1.428-1.904 2.829zM509.108 617.522h-.883v-.883h.883v.883zm-.084 9.09h-.715v-6.751h.715v6.752zM516.353 620.492l-.476.475c-.519-.378-1.15-.574-1.892-.574-1.12 0-1.723.463-1.723 1.303 0 .714.42 1.037 1.373 1.134l1.093.099c1.12.111 1.975.448 1.975 1.765 0 1.232-1.037 2.003-2.704 2.003-1.176 0-2.045-.309-2.731-.967l.49-.49c.519.546 1.26.827 2.213.827 1.33 0 2.032-.463 2.032-1.373 0-.715-.392-1.051-1.289-1.135l-1.121-.098c-1.358-.112-2.03-.7-2.03-1.765 0-1.177.952-1.92 2.423-1.92.938 0 1.764.267 2.367.716zM524.175 623.069v.322h-4.692c0 1.723.756 2.661 2.198 2.661.8 0 1.29-.238 1.864-.812l.532.42c-.687.686-1.317 1.037-2.438 1.037-1.862 0-2.871-1.205-2.871-3.46 0-2.185 1.009-3.46 2.703-3.46s2.704 1.218 2.704 3.292zm-4.455-1.527c-.182.407-.195.63-.237 1.275h3.978c-.042-.645-.057-.868-.239-1.275-.294-.715-.966-1.134-1.75-1.134-.785 0-1.43.433-1.752 1.134zM530.956 620.421l-.518.519c-.407-.406-.715-.532-1.275-.532-1.163 0-1.807.965-1.807 2.044v4.16h-.714v-6.751h.714v.896c.392-.63 1.176-.98 1.975-.98.658 0 1.134.154 1.625.644zM537.343 620.492l-.476.475c-.519-.378-1.15-.574-1.891-.574-1.12 0-1.723.463-1.723 1.303 0 .714.42 1.037 1.373 1.134l1.092.099c1.12.111 1.975.448 1.975 1.765 0 1.232-1.037 2.003-2.704 2.003-1.176 0-2.045-.309-2.731-.967l.49-.49c.519.546 1.26.827 2.214.827 1.33 0 2.03-.463 2.03-1.373 0-.715-.391-1.051-1.288-1.135l-1.12-.098c-1.36-.112-2.032-.7-2.032-1.765 0-1.177.953-1.92 2.424-1.92.938 0 1.764.267 2.367.716zM541.075 619.86h1.527v.533h-1.527v4.469c0 .715.322 1.12 1.036 1.12h.49v.63h-.616c-1.064 0-1.625-.742-1.625-1.764v-4.455h-.924v-.532h.924v-2.158h.715v2.158zM549.205 620.421l-.518.519c-.407-.406-.715-.532-1.275-.532-1.163 0-1.807.965-1.807 2.044v4.16h-.714v-6.751h.714v.896c.392-.63 1.176-.98 1.975-.98.658 0 1.134.154 1.625.644zM555.929 621.99v4.623h-.715v-.672c-.574.574-1.106.756-2.059.756-1.008 0-1.554-.168-1.988-.617-.323-.322-.491-.812-.491-1.316 0-1.233.883-1.947 2.353-1.947h2.185v-.757c0-1.078-.518-1.652-1.904-1.652-.953 0-1.429.238-1.864.854l-.518-.448c.575-.799 1.275-1.037 2.382-1.037 1.793 0 2.619.799 2.619 2.214zm-2.816 1.401c-1.148 0-1.722.448-1.722 1.358 0 .897.532 1.318 1.764 1.318.617 0 1.191-.057 1.682-.519.251-.238.377-.673.377-1.289v-.868h-2.1zM563.245 620.492l-.476.475c-.518-.378-1.149-.574-1.89-.574-1.122 0-1.724.463-1.724 1.303 0 .714.42 1.037 1.373 1.134l1.092.099c1.12.111 1.975.448 1.975 1.765 0 1.232-1.036 2.003-2.703 2.003-1.177 0-2.045-.309-2.732-.967l.49-.49c.52.546 1.261.827 2.214.827 1.33 0 2.031-.463 2.031-1.373 0-.715-.392-1.051-1.288-1.135l-1.121-.098c-1.359-.112-2.031-.7-2.031-1.765 0-1.177.952-1.92 2.423-1.92.939 0 1.765.267 2.367.716zM570.563 620.492l-.476.475c-.519-.378-1.149-.574-1.891-.574-1.12 0-1.723.463-1.723 1.303 0 .714.42 1.037 1.373 1.134l1.092.099c1.12.111 1.975.448 1.975 1.765 0 1.232-1.036 2.003-2.703 2.003-1.177 0-2.045-.309-2.732-.967l.49-.49c.519.546 1.261.827 2.214.827 1.33 0 2.031-.463 2.031-1.373 0-.715-.393-1.051-1.289-1.135l-1.12-.098c-1.359-.112-2.031-.7-2.031-1.765 0-1.177.952-1.92 2.423-1.92.938 0 1.765.267 2.367.716zM578.385 623.069v.322h-4.692c0 1.723.756 2.661 2.199 2.661.799 0 1.289-.238 1.863-.812l.532.42c-.686.686-1.317 1.037-2.437 1.037-1.863 0-2.872-1.205-2.872-3.46 0-2.185 1.009-3.46 2.704-3.46s2.703 1.218 2.703 3.292zm-4.454-1.527c-.182.407-.196.63-.238 1.275h3.978c-.042-.645-.056-.868-.238-1.275-.294-.715-.967-1.134-1.751-1.134-.784 0-1.429.433-1.751 1.134z"/><g><path class="cls-16" d="M1105.375 585.677v.813l-2.423.869v4.65l2.423.868v.813l-9.974-3.67v-.673l9.974-3.67zm-3.096 6.094v-4.174l-5.869 2.086 5.87 2.088zM1103.61 583.058c.771 0 1.135-.238 1.135-1.037v-.49h.63v.616c0 1.106-.686 1.625-1.75 1.625h-8.224v-.714h8.21zM1099.492 578.695c-.785-.602-.953-1.233-.953-2.002 0-.715.238-1.303.59-1.654.686-.686 1.806-.868 2.87-.868s2.186.182 2.872.868c.35.351.588.939.588 1.654 0 .77-.168 1.4-.952 2.002h.868v.715h-9.973v-.715h4.09zm2.507 0c1.402 0 2.83-.252 2.83-1.905s-1.428-1.905-2.83-1.905c-1.4 0-2.829.253-2.829 1.905s1.429 1.905 2.83 1.905zM1096.284 570.864v.881h-.883v-.881h.883zm9.091.084v.713h-6.752v-.713h6.752zM1099.254 563.619l.476.475c-.378.519-.575 1.15-.575 1.892 0 1.12.463 1.722 1.303 1.722.715 0 1.037-.42 1.135-1.373l.099-1.091c.11-1.122.448-1.976 1.764-1.976 1.233 0 2.003 1.036 2.003 2.704 0 1.176-.308 2.045-.967 2.73l-.49-.49c.547-.517.827-1.26.827-2.213 0-1.33-.463-2.03-1.373-2.03-.715 0-1.05.392-1.135 1.288l-.097 1.12c-.113 1.359-.701 2.032-1.766 2.032-1.177 0-1.919-.953-1.919-2.423 0-.94.267-1.766.715-2.368zM1099.184 556.652l.518.517c-.406.407-.532.715-.532 1.276 0 1.162.966 1.806 2.045 1.806h4.16v.715h-6.752v-.715h.897c-.63-.392-.98-1.176-.98-1.974 0-.659.153-1.135.644-1.625zM1096.284 553.92v.882h-.883v-.882h.883zm9.091.084v.714h-6.752v-.714h6.752zM1101.831 546.1h.322v4.693c1.723 0 2.662-.757 2.662-2.199 0-.799-.239-1.289-.813-1.863l.421-.532c.686.686 1.036 1.316 1.036 2.437 0 1.863-1.205 2.871-3.46 2.871-2.184 0-3.46-1.008-3.46-2.703s1.219-2.703 3.292-2.703zm-1.526 4.455c.406.183.63.196 1.274.238v-3.978c-.644.042-.868.055-1.274.238-.715.294-1.135.966-1.135 1.751 0 .784.434 1.429 1.135 1.751zM1105.375 538.665v.714h-.868c.784.603.952 1.234.952 2.003 0 .715-.238 1.303-.588 1.653-.686.687-1.807.869-2.872.869s-2.184-.182-2.87-.869c-.352-.35-.59-.938-.59-1.653 0-.77.168-1.4.953-2.003h-4.09v-.714h9.973zM1102 543.19c1.402 0 2.83-.253 2.83-1.905s-1.428-1.906-2.83-1.906c-1.4 0-2.829.253-2.829 1.906s1.429 1.905 2.83 1.905zM1101.831 530.75h.322v4.692c1.723 0 2.662-.757 2.662-2.199 0-.798-.239-1.289-.813-1.863l.421-.533c.686.687 1.036 1.317 1.036 2.438 0 1.863-1.205 2.872-3.46 2.872-2.184 0-3.46-1.01-3.46-2.705 0-1.694 1.219-2.703 3.292-2.703zm-1.526 4.454c.406.182.63.196 1.274.238v-3.978c-.644.042-.868.056-1.274.237-.715.295-1.135.967-1.135 1.751 0 .786.434 1.43 1.135 1.752zM1099.184 523.97l.518.518c-.406.405-.532.714-.532 1.274 0 1.162.966 1.807 2.045 1.807h4.16v.715h-6.752v-.715h.897c-.63-.392-.98-1.177-.98-1.975 0-.66.153-1.135.644-1.625zM1099.254 517.582l.476.477c-.378.518-.575 1.148-.575 1.89 0 1.122.463 1.723 1.303 1.723.715 0 1.037-.42 1.135-1.372l.099-1.093c.11-1.12.448-1.975 1.764-1.975 1.233 0 2.003 1.037 2.003 2.704 0 1.177-.308 2.045-.967 2.731l-.49-.49c.547-.518.827-1.26.827-2.214 0-1.33-.463-2.03-1.373-2.03-.715 0-1.05.392-1.135 1.288l-.097 1.121c-.113 1.359-.701 2.031-1.766 2.031-1.177 0-1.919-.953-1.919-2.423 0-.939.267-1.765.715-2.368zM1098.623 513.85v-1.525h.532v1.526h4.47c.714 0 1.12-.322 1.12-1.036v-.49h.63v.616c0 1.064-.742 1.625-1.765 1.625h-4.455v.924h-.532v-.924h-2.157v-.715h2.157zM1099.184 505.721l.518.519c-.406.405-.532.713-.532 1.274 0 1.162.966 1.807 2.045 1.807h4.16v.714h-6.752v-.714h.897c-.63-.392-.98-1.177-.98-1.975 0-.66.153-1.135.644-1.625zM1100.753 498.996h4.622v.714h-.672c.574.575.756 1.108.756 2.06 0 1.009-.168 1.555-.616 1.99-.322.321-.813.49-1.317.49-1.233 0-1.947-.883-1.947-2.354v-2.186h-.757c-1.078 0-1.652.519-1.652 1.906 0 .952.238 1.428.855 1.863l-.449.518c-.799-.575-1.037-1.275-1.037-2.381 0-1.793.799-2.62 2.214-2.62zm1.4 2.816c0 1.148.449 1.723 1.359 1.723.896 0 1.317-.533 1.317-1.765 0-.616-.056-1.19-.518-1.68-.239-.254-.673-.38-1.29-.38h-.868v2.102zM1099.254 491.68l.476.477c-.378.517-.575 1.148-.575 1.89 0 1.121.463 1.723 1.303 1.723.715 0 1.037-.42 1.135-1.372l.099-1.093c.11-1.121.448-1.976 1.764-1.976 1.233 0 2.003 1.038 2.003 2.705 0 1.176-.308 2.044-.967 2.731l-.49-.49c.547-.519.827-1.261.827-2.214 0-1.33-.463-2.03-1.373-2.03-.715 0-1.05.391-1.135 1.288l-.097 1.12c-.113 1.36-.701 2.032-1.766 2.032-1.177 0-1.919-.953-1.919-2.424 0-.938.267-1.764.715-2.367zM1099.254 484.363l.476.476c-.378.518-.575 1.149-.575 1.89 0 1.122.463 1.723 1.303 1.723.715 0 1.037-.42 1.135-1.372l.099-1.092c.11-1.121.448-1.976 1.764-1.976 1.233 0 2.003 1.037 2.003 2.704 0 1.177-.308 2.045-.967 2.732l-.49-.49c.547-.52.827-1.261.827-2.215 0-1.33-.463-2.03-1.373-2.03-.715 0-1.05.392-1.135 1.288l-.097 1.121c-.113 1.359-.701 2.032-1.766 2.032-1.177 0-1.919-.953-1.919-2.424 0-.939.267-1.765.715-2.367zM1101.831 476.54h.322v4.693c1.723 0 2.662-.757 2.662-2.2 0-.798-.239-1.289-.813-1.863l.421-.532c.686.687 1.036 1.316 1.036 2.438 0 1.863-1.205 2.87-3.46 2.87-2.184 0-3.46-1.007-3.46-2.703s1.219-2.703 3.292-2.703zm-1.526 4.454c.406.182.63.197 1.274.239v-3.979c-.644.042-.868.056-1.274.239-.715.293-1.135.966-1.135 1.75s.434 1.43 1.135 1.751z"/></g></g></svg>